<?xml version="1.0" encoding="UTF-8" standalone="no"?>
<svg id="Layer_1" height="318.55899" viewBox="0 0 310 318.55899" width="310" xmlns="http://www.w3.org/2000/svg">
   <path id="path8" d="m160.62238 316.55898c-70.066447-.18937-131.116836-44.44906-151.0321185-110.46512-16.6328905-55.31672-5.8493911-105.87818 31.5614625-150.06423 22.997786-27.153378 52.65504-43.79679 87.519936-50.91916a154.20931 154.20931 0 0 1 59.1567-.4839424c2.18826.3997785 2.2093.9889258 1.35714 2.7563677q-14.43411 30.0465127-28.73145 60.1771887a3.0299004 3.0299004 0 0 1-3.15614 1.94629 89.876525 89.876525 0 0 0-85.436883 70.339976c-9.605205 42.78682 13.539867 87.04651 54.380403 102.73256 32.41362 12.44574 62.57586 7.49059 90.01329-13.78184 1.39922-1.05205 1.97785-1.26246 2.9773.47342q15.78073 27.61628 31.83499 55.12736c.93632 1.60963.59967 2.33555-.78904 3.30343a156.40809 156.40809 0 0 1-69.66666 27.35327 188.74807 188.74807 0 0 1-19.98893 1.50443z" fill="#ef492d" stroke-width="1.0520488"/>
   <path id="path10" d="m269.46734 271.00527c-.86268-.4629-1.10465-1.40975-1.54651-2.17774q-17.94795-31.03544-35.76966-62.134a4.5132891 4.5132891 0 0 0-4.58693-2.54596c-23.75526.0736-47.5 0-71.25526 0h-2.95626a3.5454043 3.5454043 0 0 1  .92581-2.47231q18.09523-31.43522 36.21151-62.87044a3.6611296 3.6611296 0 0 1 3.70322-2.1041q36.47453.0947 72.92801 0a3.6190477 3.6190477 0 0 1 3.67166 2.1041q18.18992 31.69823 36.54817 63.3123a3.2508306 3.2508306 0 0 1  .1052 3.77685q-18.44241 31.84552-36.74806 63.62791c-.32613.53654-.47342 1.27298-1.2309 1.48339z" fill="#ef492d" stroke-width="1.0520488"/>
   <path id="path12" d="m218.25361 48.454879c-4.35548-4.355482-8.41639-8.521595-12.62458-12.624585-1.30454-1.262459-.38926-2.198782.16832-3.156146a37.873755 37.873755 0 0 1 21.91418-17.400887 42.344962 42.344962 0 0 1  34.13898 3.366556c18.93688 10.236435 17.24308 33.981175 6.31229 44.712072a60.240311 60.240311 0 0 1-13.93964 10.026025c-5.26025 2.798449-10.52049 5.439092-15.67553 8.41639-4.28184 2.451273-7.61683 5.83887-9.16334 10.741417-.63123 1.977852-.2525 2.493356 1.86212 2.472315 13.90809-.08416 27.82669 0 41.7453-.08416 2.10409 0 2.89313.399779 2.80897 2.693245-.18937 4.913069-.11573 9.836659 0 14.728679 0 1.55703-.43134 2.10409-2.03046 2.10409q-33.54983-.0631-67.07863 0c-1.05204 0-2.03045 0-2.04097-1.52547 0-15.486147 2.86157-29.909736 14.98117-40.956248a80.113512 80.113512 0 0 1 19.24198-12.624589c3.82945-1.872646 7.70099-3.661129 11.04651-6.375415 2.92469-2.37763 4.94463-5.260244 5.15504-9.152824.31561-6.091362-4.50277-10.615172-11.78295-11.088594-10.46788-.746955-18.02159 3.966224-23.30288 12.719269-.52602.86268-1.00997 1.746401-1.73588 3.00886z" fill="#ef492d" stroke-width="1.0520488"/>
   <path id="path14" d="m271.59248 293.05621v-5.06035h-1.80952v-1.05205h4.84994v1.05205h-1.83056v5.06035zm3.81894 0v-6.09136h1.84108l1.05205 4.15559 1.05205-4.15559h1.85161v6.09136h-1.04153v-4.79734l-1.20986 4.79734h-1.18881l-1.19934-4.79734v4.79734z" fill="#ef492d" stroke-width="1.0520488"/>
</svg>
