<svg width="250" height="59" xmlns="http://www.w3.org/2000/svg"><g fill="none"><path d="M58.48 29.24c0 16.148-13.092 29.24-29.24 29.24C13.09 58.48 0 45.388 0 29.24 0 13.09 13.091 0 29.24 0c16.148 0 29.24 13.091 29.24 29.24" fill="#DA552F"/><path d="M33.138 29.24h-8.284v-8.772h8.284a4.386 4.386 0 1 1 0 8.772m0-14.62H19.006v29.24h5.848v-8.772h8.284c5.652 0 10.234-4.582 10.234-10.234S38.79 14.62 33.138 14.62" fill="#FFF"/><path d="M89.197 25.666c0-1.609-1.236-2.584-2.842-2.584H82.05v5.138h4.306c1.606 0 2.842-.975 2.842-2.554zm-11.224 13.32V19.493h8.955c4.164 0 6.43 2.814 6.43 6.173 0 3.33-2.295 6.143-6.43 6.143H82.05v7.177h-4.076zm17.867 0V24.775h3.643v1.866c1.005-1.206 2.7-2.21 4.423-2.21v3.559c-.26-.057-.575-.085-1.005-.085-1.206 0-2.815.688-3.418 1.58v9.501h-3.644zm20.33-7.292c0-2.153-1.266-4.019-3.562-4.019-2.269 0-3.53 1.866-3.53 4.02 0 2.181 1.261 4.047 3.53 4.047 2.296 0 3.561-1.866 3.561-4.048m-10.882 0c0-3.932 2.756-7.263 7.321-7.263 4.594 0 7.35 3.33 7.35 7.263s-2.756 7.292-7.35 7.292c-4.565 0-7.321-3.359-7.321-7.292m26.939 2.469v-4.909c-.603-.92-1.923-1.579-3.13-1.579-2.094 0-3.53 1.636-3.53 4.02 0 2.41 1.436 4.047 3.53 4.047 1.207 0 2.527-.66 3.13-1.58zm0 4.823v-2.124c-1.092 1.377-2.583 2.124-4.278 2.124-3.473 0-6.143-2.64-6.143-7.292 0-4.506 2.613-7.263 6.143-7.263 1.636 0 3.186.69 4.278 2.124v-7.062h3.674v19.493h-3.674zm16.66 0V36.89c-.946 1.034-2.611 2.096-4.88 2.096-3.042 0-4.477-1.665-4.477-4.364v-9.847h3.644v8.412c0 1.924 1.005 2.555 2.555 2.555 1.406 0 2.527-.775 3.158-1.58v-9.387h3.646v14.211h-3.646zm6.384-7.292c0-4.248 3.1-7.263 7.35-7.263 2.842 0 4.564 1.235 5.483 2.498l-2.384 2.238c-.659-.976-1.664-1.492-2.927-1.492-2.211 0-3.76 1.608-3.76 4.02 0 2.41 1.549 4.047 3.76 4.047 1.263 0 2.268-.574 2.927-1.522l2.384 2.24c-.919 1.263-2.641 2.526-5.483 2.526-4.25 0-7.35-3.014-7.35-7.292m15.968 3.474v-7.206h-2.296v-3.187h2.296v-3.79h3.647v3.79h2.811v3.187h-2.811v6.23c0 .89.457 1.55 1.262 1.55.544 0 1.064-.201 1.262-.43l.777 2.783c-.545.49-1.522.891-3.044.891-2.555 0-3.904-1.32-3.904-3.818m29.812 3.818v-8.412h-9.044v8.412h-4.074V19.493h4.074v7.521h9.044v-7.52h4.105v19.492zm17.152 0V36.89c-.947 1.034-2.612 2.096-4.88 2.096-3.043 0-4.478-1.665-4.478-4.364v-9.847h3.644v8.412c0 1.924 1.005 2.555 2.556 2.555 1.406 0 2.527-.775 3.158-1.58v-9.387h3.646v14.211h-3.646zm16.628 0V30.26c0-1.924-1.002-2.584-2.554-2.584-1.435 0-2.525.804-3.158 1.608v9.703h-3.644V24.775h3.644v1.78c.891-1.033 2.613-2.124 4.852-2.124 3.072 0 4.536 1.722 4.536 4.42v10.135h-3.675zm8.02-3.818v-7.206h-2.294v-3.187h2.295v-3.79h3.647v3.79h2.812v3.187h-2.812v6.23c0 .89.458 1.55 1.262 1.55.545 0 1.064-.201 1.264-.43l.774 2.783c-.544.49-1.522.891-3.043.891-2.555 0-3.904-1.32-3.904-3.818" fill="#DA552F"/></g></svg>