<?xml version="1.0" encoding="UTF-8" standalone="no"?>
<svg
   xmlns:dc="http://purl.org/dc/elements/1.1/"
   xmlns:cc="http://creativecommons.org/ns#"
   xmlns:rdf="http://www.w3.org/1999/02/22-rdf-syntax-ns#"
   xmlns:svg="http://www.w3.org/2000/svg"
   xmlns="http://www.w3.org/2000/svg"
   xmlns:sodipodi="http://sodipodi.sourceforge.net/DTD/sodipodi-0.dtd"
   xmlns:inkscape="http://www.inkscape.org/namespaces/inkscape"
   version="1.1"
   id="layer"
   x="0px"
   y="0px"
   viewBox="-153 -46 600.04999 94.400002"
   xml:space="preserve"
   sodipodi:docname="sourceforge-vector-logo.svg"
   width="600.04999"
   height="94.400002"
   inkscape:version="1.0.1 (3bc2e813f5, 2020-09-07)"><metadata
   id="metadata15"><rdf:RDF><cc:Work
       rdf:about=""><dc:format>image/svg+xml</dc:format><dc:type
         rdf:resource="http://purl.org/dc/dcmitype/StillImage" /><dc:title></dc:title></cc:Work></rdf:RDF></metadata><defs
   id="defs13" /><sodipodi:namedview
   pagecolor="#ffffff"
   bordercolor="#666666"
   borderopacity="1"
   objecttolerance="10"
   gridtolerance="10"
   guidetolerance="10"
   inkscape:pageopacity="0"
   inkscape:pageshadow="2"
   inkscape:window-width="1920"
   inkscape:window-height="1007"
   id="namedview11"
   showgrid="false"
   fit-margin-top="0"
   fit-margin-left="0"
   fit-margin-right="0"
   fit-margin-bottom="0"
   inkscape:zoom="1.0966258"
   inkscape:cx="299.55"
   inkscape:cy="47.9"
   inkscape:window-x="0"
   inkscape:window-y="0"
   inkscape:window-maximized="1"
   inkscape:current-layer="layer" />
<style
   type="text/css"
   id="style2">
	.st0{fill:#FF6600;}
</style>
<path
   class="st0"
   d="m -91.45,4.1 c 0,-17.6 -6.2,-25.5 -9.6,-28.6 -0.6,-0.6 -1.7,-0.1 -1.6,0.8 0.6,9.9 -11.9,12.4 -11.9,27.9 v 0 0.1 c 0,9.5 7.2,17.2 16,17.2 8.8,0 16,-7.7 16,-17.2 v -0.1 0 c 0,-4.4 -1.7,-8.6 -3.3,-11.8 -0.4,-0.6 -1.3,-0.4 -1.2,0.2 3.1,13.6 -4.4,21.8 -4.4,11.5 z m -19.1,37.1 c -0.4,0 -0.8,-0.2 -1.1,-0.5 l -40.9,-40.9 c -0.6,-0.6 -0.6,-1.6 0,-2.2 l 43.2,-43.2 c 0.3,-0.2 0.6,-0.4 1,-0.4 h 12.4 c 0.7,0 1.2,0.5 1.4,0.9 0.2,0.5 0.2,1.1 -0.4,1.7 l -40.5,40.6 c -0.8,0.8 -0.8,2.1 0,2.9 l 32.1,32.2 c 0.6,0.6 0.6,1.6 0,2.2 l -6.2,6.2 c -0.2,0.3 -0.6,0.5 -1,0.5 z m 8.2,7.1 c -0.7,0 -1.2,-0.5 -1.4,-0.9 -0.2,-0.5 -0.2,-1.1 0.4,-1.7 l 40.6,-40.6 c 0.4,-0.4 0.6,-0.9 0.6,-1.5 0,-0.6 -0.2,-1.1 -0.6,-1.5 l -32.2,-32.2 c -0.6,-0.6 -0.6,-1.6 0,-2.2 l 6.2,-6.2 c 0.3,-0.3 0.6,-0.5 1.1,-0.5 0.5,0 0.7,0.3 1,0.6 l 40.8,40.9 c 0.3,0.3 0.5,0.6 0.5,1.1 0,0.5 -0.2,0.8 -0.5,1.1 l -43.2,43.2 c -0.3,0.3 -0.6,0.5 -1.1,0.5 z"
   id="path4" />
<path
   d="m 0.65,-16.5 c -0.2,0.4 -0.5,0.6 -0.9,0.6 -0.3,0 -0.6,-0.2 -1.1,-0.6 -0.5,-0.4 -1.1,-0.9 -1.8,-1.4 -0.8,-0.6 -1.7,-1 -2.9,-1.4 -1.2,-0.5 -2.7,-0.6 -4.4,-0.6 -1.7,0 -3.2,0.3 -4.6,0.7 -1.3,0.5 -2.4,1.2 -3.3,2 -0.9,0.8 -1.6,1.8 -2,2.9 -0.5,1.1 -0.7,2.3 -0.7,3.5 0,1.7 0.4,2.9 1,4 0.6,1 1.6,1.9 2.8,2.7 1.1,0.7 2.4,1.4 3.9,1.8 1.5,0.6 2.9,1 4.4,1.5 1.5,0.5 2.9,1 4.4,1.7 1.5,0.6 2.7,1.4 3.9,2.2 1.2,0.8 2,2 2.8,3.3 0.6,1.3 1,2.9 1,4.9 0,2 -0.4,3.9 -1,5.6 -0.6,1.7 -1.7,3.3 -2.9,4.6 -1.2,1.3 -2.9,2.3 -4.8,3.1 -1.9,0.7 -4,1.1 -6.4,1.1 -3.1,0 -5.9,-0.6 -8.1,-1.7 -2.3,-1.1 -4.2,-2.7 -6,-4.6 l 0.6,-1.5 c 0.3,-0.4 0.6,-0.5 0.9,-0.5 0.2,0 0.5,0.1 0.7,0.4 0.3,0.3 0.7,0.6 1.1,1 0.5,0.4 1,0.8 1.7,1.3 0.7,0.5 1.4,0.9 2.2,1.3 0.8,0.4 1.7,0.7 2.8,1 1.1,0.3 2.3,0.4 3.7,0.4 1.9,0 3.6,-0.3 5.1,-0.8 1.5,-0.6 2.8,-1.4 3.8,-2.3 1,-0.9 1.8,-2.2 2.4,-3.5 0.6,-1.4 0.8,-2.8 0.8,-4.3 0,-1.7 -0.4,-3 -1,-4.1 -0.6,-1.1 -1.6,-2 -2.8,-2.8 -1.1,-0.7 -2.4,-1.4 -3.9,-1.8 -1.5,-0.5 -2.9,-1 -4.4,-1.5 -1.5,-0.5 -2.9,-1 -4.4,-1.6 -1.5,-0.6 -2.7,-1.3 -3.9,-2.2 -1.1,-0.9 -2,-2 -2.8,-3.4 -0.6,-1.4 -1,-3 -1,-5.1 0,-1.6 0.3,-3.1 0.9,-4.6 0.6,-1.5 1.5,-2.8 2.7,-4 1.2,-1.1 2.6,-2 4.3,-2.8 1.7,-0.6 3.7,-1 5.9,-1 2.5,0 4.7,0.4 6.7,1.2 1.9,0.8 3.8,2 5.4,3.6 z m -13.1,43 c -3.2,0 -6.1,-0.6 -8.4,-1.7 -2.3,-1.1 -4.4,-2.8 -6.2,-4.7 l -0.3,-0.3 1.2,-1.8 c 0.6,-0.6 1,-0.7 1.4,-0.7 0.4,0 0.7,0.2 1.1,0.6 0.3,0.3 0.7,0.6 1.2,1 0.5,0.4 1,0.8 1.6,1.3 0.6,0.5 1.3,0.8 2.1,1.2 0.8,0.4 1.7,0.7 2.8,0.9 1,0.3 2.2,0.4 3.6,0.4 1.8,0 3.5,-0.3 4.9,-0.8 1.4,-0.6 2.6,-1.3 3.6,-2.2 0.9,-0.9 1.7,-2 2.2,-3.3 0.6,-1.3 0.7,-2.7 0.7,-4.1 0,-1.6 -0.3,-2.8 -0.9,-3.9 -0.6,-1.1 -1.5,-1.8 -2.6,-2.6 -1.1,-0.7 -2.3,-1.3 -3.7,-1.7 -1.4,-0.5 -2.8,-1 -4.4,-1.5 -1.6,-0.5 -3,-1 -4.4,-1.6 -1.5,-0.6 -2.8,-1.4 -4,-2.3 -1.2,-0.9 -2.1,-2.2 -2.8,-3.6 -0.7,-1.5 -1.1,-3.2 -1.1,-5.3 0,-1.7 0.3,-3.3 0.9,-4.9 0.6,-1.6 1.6,-2.9 2.8,-4.1 1.2,-1.2 2.8,-2.1 4.5,-2.8 1.7,-0.7 3.9,-1.1 6.1,-1.1 2.6,0 4.9,0.4 6.9,1.2 2,0.8 3.9,2.1 5.6,3.8 l 0.3,0.3 -1,1.9 c -0.6,1 -1.6,1.3 -2.8,0.1 -0.5,-0.4 -1,-0.8 -1.8,-1.3 -0.7,-0.5 -1.7,-0.9 -2.8,-1.4 -1.1,-0.4 -2.5,-0.6 -4.2,-0.6 -1.7,0 -3.1,0.3 -4.4,0.7 -1.2,0.5 -2.3,1.1 -3.1,1.9 -0.8,0.8 -1.5,1.7 -1.9,2.8 -0.4,1.1 -0.6,2.2 -0.6,3.3 0,1.5 0.3,2.8 0.9,3.7 0.6,1 1.5,1.8 2.6,2.6 1.1,0.7 2.3,1.3 3.7,1.8 1.4,0.5 2.8,1 4.4,1.5 1.5,0.5 3,1 4.4,1.7 1.5,0.6 2.8,1.4 4,2.3 1.2,0.9 2.1,2.1 2.8,3.5 0.7,1.4 1.1,3.1 1.1,5.1 0,2 -0.4,4 -1.1,5.9 -0.7,1.8 -1.7,3.4 -3.1,4.8 -1.4,1.4 -3,2.4 -5,3.2 -2,0.3 -4.3,0.8 -6.8,0.8 z m -13.3,-6.9 c 1.6,1.7 3.4,3.1 5.5,4.1 2.2,1.1 4.9,1.7 7.9,1.7 2.3,0 4.4,-0.4 6.2,-1.1 1.8,-0.7 3.3,-1.7 4.6,-2.9 1.2,-1.2 2.2,-2.8 2.8,-4.4 0.6,-1.7 1,-3.5 1,-5.4 0,-1.8 -0.4,-3.4 -0.9,-4.7 -0.6,-1.2 -1.5,-2.3 -2.6,-3.1 -1.1,-0.8 -2.3,-1.6 -3.7,-2.2 -1.4,-0.6 -2.8,-1.1 -4.3,-1.7 -1.5,-0.5 -2.9,-1 -4.4,-1.5 -1.5,-0.6 -2.8,-1.2 -4,-1.9 -1.2,-0.7 -2.1,-1.7 -2.8,-2.8 -0.7,-1.1 -1.1,-2.6 -1.1,-4.3 0,-1.3 0.3,-2.6 0.7,-3.8 0.4,-1.2 1.2,-2.3 2.1,-3.1 0.9,-0.9 2.1,-1.7 3.5,-2.1 1.4,-0.6 3,-0.7 4.8,-0.7 1.8,0 3.3,0.2 4.6,0.6 1.2,0.5 2.3,0.9 3,1.5 0.8,0.6 1.5,1 1.9,1.5 0.6,0.5 0.7,0.5 0.7,0.5 0.1,0 0.3,0 0.4,-0.3 l 0.6,-1.2 c -1.5,-1.4 -3.1,-2.5 -4.9,-3.2 -1.9,-0.7 -4,-1.1 -6.4,-1.1 -2.1,0 -4,0.4 -5.7,1 -1.7,0.6 -3,1.6 -4.1,2.6 -1.1,1.1 -1.9,2.3 -2.6,3.8 -0.6,1.4 -0.8,2.8 -0.8,4.4 0,1.9 0.4,3.6 1,4.9 0.6,1.3 1.5,2.4 2.6,3.2 1.1,0.8 2.3,1.6 3.7,2.1 1.4,0.6 2.8,1.1 4.3,1.6 1.5,0.5 2.9,0.9 4.4,1.5 1.5,0.6 2.8,1.1 4,1.9 1.2,0.7 2.2,1.7 2.8,2.9 0.7,1.2 1.1,2.7 1.1,4.5 0,1.7 -0.3,3.1 -0.8,4.6 -0.6,1.5 -1.4,2.7 -2.5,3.7 -1.1,1 -2.4,1.8 -4,2.5 -1.6,0.6 -3.3,0.9 -5.2,0.9 -1.4,0 -2.7,-0.2 -3.9,-0.5 -1.1,-0.3 -2.1,-0.6 -2.9,-1 -0.8,-0.4 -1.7,-0.8 -2.3,-1.4 -0.6,-0.5 -1.2,-0.9 -1.7,-1.3 -0.5,-0.4 -0.8,-0.7 -1.1,-1 -0.3,-0.3 -0.5,-0.3 -0.5,-0.3 -0.1,0 -0.3,0 -0.5,0.3 z M 55.35,1.5 c 0,3.7 -0.6,7 -1.7,10 -1.1,3 -2.7,5.6 -4.7,7.7 -2,2.1 -4.4,3.8 -7.2,5 -2.8,1.2 -5.9,1.7 -9.3,1.7 -3.3,0 -6.4,-0.6 -9.2,-1.7 -2.8,-1.2 -5.1,-2.8 -7.2,-5 -2,-2.1 -3.6,-4.7 -4.7,-7.7 -1.1,-3 -1.7,-6.3 -1.7,-10 0,-3.7 0.6,-7 1.7,-10 1.1,-3 2.7,-5.6 4.7,-7.7 2,-2.1 4.4,-3.8 7.2,-5 2.8,-1.2 5.9,-1.7 9.2,-1.7 3.4,0 6.5,0.6 9.3,1.7 2.8,1.2 5.1,2.8 7.2,5 2,2.1 3.6,4.7 4.7,7.7 1.1,3 1.7,6.3 1.7,10 z m -3.6,0 c 0,-3.3 -0.5,-6.3 -1.4,-9 -0.9,-2.7 -2.2,-4.9 -3.9,-6.7 -1.7,-1.8 -3.7,-3.2 -6.1,-4.2 -2.4,-1 -5,-1.5 -7.8,-1.5 -2.8,0 -5.4,0.5 -7.8,1.5 -2.4,1 -4.4,2.4 -6.1,4.2 -1.7,1.8 -3,4 -4,6.7 -1,2.7 -1.4,5.6 -1.4,9 0,3.3 0.5,6.3 1.4,9 0.9,2.7 2.2,4.9 4,6.7 1.7,1.8 3.7,3.2 6.1,4.2 2.4,1 5,1.5 7.8,1.5 2.8,0 5.5,-0.5 7.8,-1.5 2.4,-0.9 4.4,-2.4 6.1,-4.2 1.7,-1.8 2.9,-4 3.9,-6.7 1,-2.7 1.4,-5.6 1.4,-9 z m -19.1,24.9 c -3.4,0 -6.6,-0.6 -9.4,-1.7 -2.8,-1.2 -5.3,-2.8 -7.4,-5.1 -2,-2.2 -3.7,-4.8 -4.8,-7.9 -1.1,-3 -1.7,-6.5 -1.7,-10.2 0,-3.7 0.6,-7.2 1.7,-10.2 1.1,-3 2.8,-5.7 4.8,-7.9 2,-2.2 4.5,-3.9 7.4,-5.1 2.8,-1.2 6,-1.8 9.4,-1.8 3.5,0 6.6,0.6 9.5,1.7 2.8,1.2 5.3,2.8 7.4,5.1 2.1,2.3 3.7,4.9 4.8,7.9 1.1,3 1.7,6.4 1.7,10.2 0,3.8 -0.6,7.2 -1.7,10.2 -1.1,3 -2.8,5.7 -4.8,7.9 -2,2.2 -4.5,3.9 -7.4,5.1 -2.9,1.2 -6.1,1.8 -9.5,1.8 z m 0,-48.7 c -3.2,0 -6.2,0.6 -9,1.7 -2.7,1.1 -5.1,2.8 -7,4.8 -1.9,2 -3.5,4.6 -4.5,7.5 -1.1,2.9 -1.7,6.2 -1.7,9.8 0,3.6 0.6,6.9 1.7,9.8 1.1,2.9 2.6,5.4 4.5,7.5 1.9,2 4.3,3.7 7,4.8 2.7,1.1 5.7,1.7 9,1.7 3.3,0 6.3,-0.6 9,-1.7 2.7,-1.1 5.1,-2.8 7,-4.8 1.9,-2 3.5,-4.6 4.5,-7.4 1.1,-2.9 1.7,-6.2 1.7,-9.8 0,-3.6 -0.6,-6.9 -1.7,-9.8 -1.1,-2.9 -2.6,-5.4 -4.5,-7.5 -1.9,-2 -4.3,-3.7 -7,-4.8 -2.7,-1.3 -5.7,-1.8 -9,-1.8 z m 50,45.2 c 2.3,0 4.3,-0.4 6.2,-1.2 1.8,-0.8 3.3,-1.9 4.6,-3.3 1.3,-1.4 2.2,-3.1 2.8,-5 0.6,-1.9 1,-4 1,-6.2 v -29.5 h 3.4 V 7.2 c 0,2.7 -0.5,5.1 -1.3,7.4 -0.8,2.3 -2,4.2 -3.6,6 -1.6,1.7 -3.5,3 -5.7,4 -2.2,0.9 -4.8,1.5 -7.5,1.5 -2.8,0 -5.3,-0.5 -7.5,-1.5 -2.2,-1 -4.1,-2.3 -5.7,-4 -1.6,-1.7 -2.8,-3.7 -3.6,-6 -0.8,-2.3 -1.3,-4.8 -1.3,-7.4 v -29.5 h 3.5 V 7.1 c 0,2.2 0.4,4.3 1,6.2 0.6,1.9 1.7,3.6 2.8,5 1.3,1.4 2.8,2.5 4.6,3.3 1.9,0.9 4,1.3 6.3,1.3 z m 0,3.6 c -2.8,0 -5.4,-0.5 -7.7,-1.5 -2.3,-1 -4.3,-2.4 -5.9,-4.1 -1.6,-1.7 -2.8,-3.9 -3.7,-6.2 -0.8,-2.3 -1.3,-4.9 -1.3,-7.5 v -30 h 4.6 v 30 c 0,2.1 0.4,4.1 0.9,6.1 0.6,1.8 1.6,3.5 2.8,4.8 1.2,1.4 2.7,2.4 4.4,3.2 1.7,0.7 3.7,1.2 5.9,1.2 2.2,0 4.2,-0.4 5.9,-1.1 1.7,-0.7 3.2,-1.8 4.4,-3.2 1.2,-1.4 2.1,-2.9 2.8,-4.8 0.6,-1.8 0.9,-3.9 0.9,-6.1 v -30.1 h 4.6 v 30 c 0,2.7 -0.5,5.2 -1.3,7.5 -0.8,2.3 -2.1,4.4 -3.7,6.2 -1.6,1.7 -3.6,3.1 -5.9,4.1 -2.3,1 -4.9,1.5 -7.7,1.5 z M 65.05,-21.8 V 7.1 c 0,2.6 0.4,5 1.2,7.2 0.8,2.2 1.9,4.1 3.5,5.8 1.5,1.7 3.3,2.9 5.5,3.9 2.1,0.9 4.6,1.4 7.4,1.4 2.7,0 5.1,-0.5 7.4,-1.4 2.1,-0.9 4,-2.2 5.5,-3.9 1.5,-1.7 2.7,-3.6 3.5,-5.8 0.8,-2.2 1.2,-4.6 1.2,-7.2 v -28.9 h -2.3 V 7.1 c 0,2.3 -0.4,4.4 -1,6.4 -0.6,2 -1.7,3.8 -3,5.2 -1.3,1.5 -2.9,2.7 -4.8,3.5 -1.9,0.8 -4,1.3 -6.3,1.3 -2.4,0 -4.5,-0.5 -6.3,-1.3 -1.8,-0.8 -3.5,-2 -4.8,-3.5 -1.3,-1.5 -2.3,-3.2 -2.9,-5.2 -0.6,-1.9 -1,-4.1 -1,-6.4 v -28.9 z m 55.4,23 c 0.9,0 0.8,0 0.8,0 h 2 c 2.1,0 4,-0.3 5.7,-0.7 1.7,-0.6 3.1,-1.2 4.2,-2.2 1.2,-0.9 2,-2.1 2.7,-3.4 0.6,-1.3 0.9,-2.8 0.9,-4.5 0,-3.4 -1.1,-5.9 -3.3,-7.5 -2.2,-1.7 -5.4,-2.5 -9.7,-2.5 h -8.7 V 1.3 3.9 25.5 h -3.5 v -47.7 h 12.1 c 5.5,0 9.6,1.1 12.3,3.2 2.8,2.1 4,5.2 4,9.4 0,1.8 -0.3,3.5 -0.9,5 -0.6,1.5 -1.6,2.8 -2.8,4 -1.2,1.1 -2.6,2.1 -4.2,2.8 -1.7,0.7 -3.6,1.2 -5.6,1.5 0.6,0.4 1,0.8 1.5,1.4 l 16.4,20.6 h -3 c -0.4,0 -0.6,-0.1 -0.9,-0.2 -0.3,-0.1 -0.6,-0.4 -0.7,-0.6 L 124.55,5.2 c -0.4,-0.5 -0.8,-0.8 -1.2,-1 -0.5,-0.2 -3.1,-0.3 -4,-0.3 0,-2.4 0.3,-2.7 1.1,-2.7 z m 25.2,24.7 h -4.1 c -0.5,0 -0.8,-0.1 -1.2,-0.3 -0.4,-0.2 -0.6,-0.5 -0.9,-0.8 L 124.15,5.5 c -0.4,-0.5 -0.6,-0.7 -1,-0.9 -0.4,-0.1 -2.6,-0.3 -3.8,-0.3 h -0.6 V 1.9 c 0,-0.8 0.2,-1.3 1.7,-1.3 0.8,0 0.9,0 0.9,0 h 2 c 2,0 3.9,-0.3 5.5,-0.7 1.6,-0.5 2.9,-1.2 4,-2.1 1.1,-0.9 1.9,-1.9 2.5,-3.2 0.6,-1.3 0.8,-2.7 0.8,-4.2 0,-3.2 -1,-5.5 -3.1,-7.1 -2.1,-1.6 -5.2,-2.4 -9.4,-2.4 h -8.2 v 44.9 h -4.6 v -48.7 h 12.8 c 5.6,0 9.8,1.1 12.7,3.3 2.8,2.2 4.3,5.5 4.3,9.8 0,1.9 -0.4,3.7 -1,5.2 -0.6,1.5 -1.7,2.9 -2.8,4.1 -1.2,1.2 -2.8,2.1 -4.4,2.9 -1.4,0.6 -2.8,1 -4.5,1.3 0.2,0.2 0.4,0.4 0.6,0.6 z M 119.85,3.2 c 1,0 3.1,0.1 3.7,0.4 0.6,0.3 1,0.6 1.5,1.2 l 15.3,19.3 c 0.2,0.3 0.4,0.5 0.6,0.6 0.2,0.1 0.4,0.2 0.6,0.2 h 1.8 L 127.55,5.2 c -0.4,-0.6 -0.8,-0.9 -1.3,-1.2 l -1.4,-0.8 1.7,-0.2 c 2,-0.2 3.9,-0.6 5.4,-1.4 1.6,-0.7 2.9,-1.6 4.1,-2.7 1.1,-1.1 2,-2.3 2.6,-3.8 0.6,-1.5 0.9,-3 0.9,-4.8 0,-4 -1.3,-6.9 -3.9,-8.9 -2.6,-2 -6.6,-3 -11.9,-3 h -11.6 v 46.4 h 2.3 v -45 h 9.3 c 4.3,0 7.7,0.8 10,2.6 2.4,1.7 3.6,4.4 3.6,8 0,1.7 -0.4,3.3 -0.9,4.7 -0.6,1.4 -1.6,2.6 -2.8,3.6 -1.2,1 -2.7,1.7 -4.4,2.3 -1.7,0.6 -3.7,0.8 -5.9,0.8 h -2 c -0.1,0 -0.2,0 -0.8,0 -0.3,0 -0.6,0 -0.7,1.4 z m 65,14.1 c 0.2,0 0.5,0.1 0.6,0.3 l 1.4,1.5 c -1,1 -2,2 -3.2,2.8 -1.2,0.8 -2.5,1.6 -3.9,2.1 -1.4,0.6 -2.9,1 -4.5,1.4 -1.7,0.4 -3.5,0.5 -5.4,0.5 -3.3,0 -6.3,-0.6 -9.1,-1.7 -2.8,-1.2 -5.1,-2.8 -7.1,-5 -1.9,-2.1 -3.5,-4.7 -4.6,-7.7 -1.1,-3 -1.7,-6.3 -1.7,-10 0,-3.6 0.6,-6.9 1.7,-9.9 1.1,-3 2.8,-5.5 4.8,-7.7 2,-2.1 4.5,-3.8 7.4,-5 2.8,-1.2 6.1,-1.7 9.5,-1.7 1.7,0 3.3,0.1 4.8,0.4 1.5,0.3 2.8,0.6 4,1.1 1.3,0.5 2.4,1.1 3.5,1.8 1.1,0.7 2.2,1.6 3.2,2.5 l -1,1.5 c -0.2,0.3 -0.5,0.4 -0.8,0.4 -0.2,0 -0.5,-0.1 -0.7,-0.4 -0.2,-0.3 -0.7,-0.6 -1.2,-0.9 -0.5,-0.4 -1.1,-0.7 -1.7,-1.1 -0.6,-0.5 -1.5,-0.8 -2.5,-1.1 -0.9,-0.4 -2,-0.6 -3.3,-0.9 -1.2,-0.3 -2.7,-0.4 -4.2,-0.4 -2.9,0 -5.6,0.5 -8,1.5 -2.4,1 -4.5,2.4 -6.2,4.3 -1.7,1.8 -3.1,4.1 -4.1,6.7 -1,2.6 -1.5,5.6 -1.5,8.9 0,3.4 0.5,6.3 1.5,9 1,2.7 2.3,4.9 4,6.7 1.7,1.8 3.8,3.2 6.1,4.2 2.3,1 4.9,1.5 7.5,1.5 1.7,0 3.2,-0.1 4.6,-0.4 1.4,-0.2 2.6,-0.6 3.7,-1 1.1,-0.5 2.2,-1 3.1,-1.7 1,-0.6 1.9,-1.4 2.8,-2.3 0.1,-0.1 0.2,-0.2 0.3,-0.2 -0.1,0.1 0.1,0 0.2,0 z m -15.2,9.2 c -3.4,0 -6.5,-0.6 -9.3,-1.7 -2.8,-1.2 -5.2,-2.8 -7.3,-5.1 -2,-2.2 -3.6,-4.8 -4.7,-7.9 -1.1,-3 -1.7,-6.5 -1.7,-10.2 0,-3.7 0.6,-7.1 1.7,-10.1 1.2,-3 2.8,-5.7 4.9,-7.9 2.1,-2.2 4.7,-4 7.5,-5.1 2.9,-1.2 6.2,-1.8 9.7,-1.8 1.7,0 3.4,0.1 4.9,0.4 1.5,0.3 2.8,0.6 4.1,1.1 1.3,0.5 2.5,1.1 3.6,1.8 1.1,0.7 2.2,1.6 3.3,2.6 l 0.4,0.4 -1.3,1.9 c -0.2,0.3 -0.6,0.6 -1.3,0.6 -0.4,0 -0.6,-0.2 -1.1,-0.5 -0.3,-0.3 -0.7,-0.6 -1.2,-0.8 -0.5,-0.4 -1,-0.7 -1.7,-1.1 -0.6,-0.4 -1.5,-0.7 -2.4,-1.1 -0.9,-0.4 -2,-0.6 -3.2,-0.8 -1.2,-0.2 -2.6,-0.4 -4.1,-0.4 -2.8,0 -5.4,0.5 -7.8,1.5 -2.3,1 -4.4,2.4 -6.1,4.1 -1.7,1.7 -3,4 -4,6.5 -0.9,2.6 -1.5,5.5 -1.5,8.6 0,3.3 0.5,6.2 1.4,8.8 0.9,2.6 2.2,4.8 3.9,6.5 1.7,1.7 3.6,3.1 5.9,4 2.2,0.9 4.7,1.4 7.4,1.4 1.7,0 3.2,-0.1 4.5,-0.4 1.3,-0.2 2.5,-0.6 3.6,-1 1.1,-0.5 2.1,-1 3,-1.6 0.9,-0.6 1.8,-1.4 2.8,-2.2 0.2,-0.2 0.3,-0.2 0.5,-0.3 0.5,-0.3 1.2,-0.2 1.6,0.3 l 1.7,1.8 -0.4,0.4 c -1,1.1 -2.1,2 -3.3,2.9 -1.2,0.8 -2.5,1.7 -4,2.2 -1.4,0.6 -2.9,1.1 -4.7,1.4 -1.4,0.6 -3.3,0.8 -5.3,0.8 z m 1,-48.8 c -3.4,0 -6.5,0.6 -9.3,1.7 -2.8,1.1 -5.2,2.8 -7.2,4.9 -2,2.1 -3.6,4.6 -4.7,7.5 -1.1,2.9 -1.7,6.2 -1.7,9.7 0,3.5 0.6,6.9 1.7,9.8 1.1,2.9 2.6,5.4 4.5,7.5 1.9,2 4.2,3.7 6.9,4.8 2.7,1.1 5.6,1.7 8.8,1.7 1.9,0 3.7,-0.2 5.3,-0.5 1.6,-0.3 3.1,-0.7 4.4,-1.4 1.4,-0.6 2.6,-1.3 3.7,-2.1 1,-0.7 1.9,-1.6 2.8,-2.4 l -1,-1.1 c -0.1,-0.1 -0.2,-0.1 -0.3,0 -0.1,0 -0.2,0.1 -0.3,0.2 -0.9,0.8 -1.9,1.7 -2.9,2.3 -1,0.6 -2.1,1.3 -3.2,1.7 -1.2,0.5 -2.5,0.8 -3.8,1 -1.4,0.2 -2.9,0.4 -4.7,0.4 -2.8,0 -5.4,-0.6 -7.8,-1.5 -2.4,-1 -4.5,-2.5 -6.2,-4.3 -1.7,-1.8 -3.1,-4.2 -4.1,-6.9 -1,-2.7 -1.5,-5.8 -1.5,-9.2 0,-3.3 0.5,-6.3 1.5,-9.1 1,-2.7 2.4,-5.1 4.2,-6.9 1.8,-1.9 4,-3.4 6.4,-4.4 2.4,-1 5.2,-1.6 8.2,-1.6 1.6,0 3,0.1 4.3,0.4 1.3,0.3 2.4,0.6 3.4,0.9 1,0.4 1.8,0.7 2.6,1.2 0.7,0.5 1.3,0.8 1.7,1.2 0.5,0.4 0.9,0.6 1.2,0.9 0.3,0.3 0.5,0.3 0.5,0.3 0.3,0 0.4,-0.1 0.4,-0.2 l 0.7,-1.1 c -0.9,-0.8 -1.8,-1.5 -2.8,-2.1 -1.1,-0.7 -2.2,-1.3 -3.4,-1.7 -1.2,-0.5 -2.6,-0.8 -4,-1.1 -1.1,-0.3 -2.6,-0.5 -4.3,-0.5 z m 53.4,0 v 2.8 h -25.1 v 19.3 h 20.9 v 2.8 h -20.9 v 19.8 h 25.1 v 2.8 h -28.6 v -47.6 h 28.6 z m 0.6,48.2 h -29.7 v -48.8 h 29.7 v 4 h -25.1 v 18.1 h 20.9 v 4 h -20.9 v 18.7 h 25.1 z m -28.6,-1.1 h 27.5 v -1.7 h -25.1 v -21 h 20.9 V 0.4 h -20.9 V -20 h 25.1 v -1.7 h -27.5 z"
   id="path6" />
<path
   d="m 266.75,-22.9 v 7.3 h -21.6 v 14.4 h 18.2 v 7.3 h -18.2 v 19.8 h -9.1 v -48.7 z m 52.9,24.4 c 0,3.6 -0.6,6.9 -1.7,9.9 -1.2,3 -2.8,5.7 -5.1,7.9 -2.1,2.2 -4.8,4 -7.8,5.2 -3,1.3 -6.4,1.8 -10.1,1.8 -3.7,0 -7.1,-0.6 -10.1,-1.8 -3,-1.3 -5.6,-2.9 -7.8,-5.2 -2.2,-2.2 -3.9,-4.9 -5.1,-7.9 -1.2,-3 -1.7,-6.3 -1.7,-9.9 0,-3.6 0.6,-6.9 1.7,-9.9 1.2,-3 2.8,-5.7 5.1,-7.9 2.2,-2.2 4.8,-4 7.8,-5.2 3,-1.3 6.4,-1.8 10.1,-1.8 3.7,0 7.1,0.6 10.1,1.9 3,1.3 5.6,3 7.8,5.2 2.1,2.2 3.9,4.9 5.1,7.9 1,2.9 1.7,6.2 1.7,9.8 z m -9.3,0 c 0,-2.7 -0.4,-5.1 -1.1,-7.2 -0.7,-2.1 -1.7,-4 -3,-5.4 -1.3,-1.5 -2.9,-2.6 -4.9,-3.4 -1.9,-0.8 -4,-1.2 -6.4,-1.2 -2.4,0 -4.5,0.4 -6.4,1.2 -1.9,0.8 -3.5,1.9 -4.9,3.4 -1.4,1.5 -2.4,3.3 -3.1,5.4 -0.7,2.1 -1.1,4.5 -1.1,7.2 0,2.7 0.4,5.1 1.1,7.2 0.7,2.1 1.7,4 3.1,5.4 1.4,1.4 2.9,2.6 4.9,3.4 1.9,0.8 4,1.2 6.4,1.2 2.4,0 4.5,-0.4 6.4,-1.2 1.9,-0.8 3.5,-1.9 4.9,-3.4 1.3,-1.5 2.3,-3.3 3,-5.4 0.7,-2.1 1.1,-4.6 1.1,-7.2 z m 28.2,-1.1 h 2.1 c 1.7,0 3.2,-0.2 4.5,-0.6 1.3,-0.5 2.3,-1 3.1,-1.7 0.8,-0.7 1.5,-1.7 1.8,-2.7 0.4,-1 0.6,-2.2 0.6,-3.4 0,-2.5 -0.8,-4.4 -2.5,-5.7 -1.7,-1.3 -4.1,-2 -7.4,-2 h -5.9 V 0.5 7 26 h -9.1 v -48.7 h 14.9 c 3.3,0 6.2,0.4 8.5,1 2.4,0.6 4.3,1.7 5.8,2.8 1.5,1.2 2.7,2.8 3.3,4.4 0.7,1.7 1.1,3.6 1.1,5.7 0,1.7 -0.3,3.2 -0.7,4.7 -0.4,1.5 -1.2,2.8 -2.1,4 -0.9,1.2 -2,2.2 -3.4,3.1 -1.4,0.9 -2.8,1.7 -4.6,2.1 1.1,0.6 2.1,1.6 2.9,2.8 l 12.2,18 h -8.2 c -0.8,0 -1.5,-0.2 -2,-0.5 -0.6,-0.3 -1,-0.7 -1.4,-1.4 L 341.85,8.4 c -0.3,-0.4 -0.8,-1.2 -1.4,-1.3 -1.1,0 -2.2,0 -3.2,0 0,0 0,-5.5 0,-5.9 0.3,-0.8 1.3,-0.8 1.3,-0.8 z m 51.9,18.8 c 2,0 3.9,-0.2 5.3,-0.6 1.5,-0.4 2.9,-0.9 4.3,-1.6 V 6 h -6.1 c -0.6,0 -1,-0.2 -1.4,-0.5 -0.4,-0.4 -0.6,-0.7 -0.6,-1.2 v -5.1 h 16.2 v 21.9 c -1.2,0.9 -2.5,1.7 -3.9,2.3 -1.4,0.6 -2.8,1.2 -4.3,1.7 -1.6,0.5 -3.1,0.7 -4.9,0.9 -1.7,0.2 -3.6,0.3 -5.6,0.3 -3.6,0 -6.8,-0.6 -9.8,-1.8 -3,-1.2 -5.6,-2.9 -7.7,-5.1 -2.2,-2.2 -3.9,-4.9 -5.1,-7.9 -1.2,-3 -1.8,-6.4 -1.8,-10 0,-3.7 0.6,-7 1.7,-10.1 1.2,-3 2.8,-5.7 5.1,-7.9 2.2,-2.2 4.9,-4 8,-5.1 3.1,-1.2 6.6,-1.8 10.5,-1.8 4,0 7.4,0.6 10.3,1.7 2.9,1.2 5.3,2.8 7.4,4.6 l -2.7,4.1 c -0.6,0.8 -1.2,1.3 -2,1.3 -0.6,0 -1.1,-0.2 -1.7,-0.6 -0.7,-0.5 -1.5,-0.8 -2.2,-1.3 -0.7,-0.5 -1.6,-0.8 -2.5,-1.1 -0.9,-0.3 -1.9,-0.6 -3,-0.7 -1.1,-0.2 -2.5,-0.3 -4,-0.3 -2.4,0 -4.6,0.4 -6.5,1.2 -1.9,0.8 -3.6,1.9 -5,3.5 -1.4,1.5 -2.4,3.3 -3.1,5.4 -0.7,2.1 -1.1,4.5 -1.1,7.1 0,2.8 0.4,5.3 1.2,7.5 0.8,2.2 1.9,4 3.3,5.5 1.4,1.5 3.1,2.7 5.1,3.5 1.9,0.8 4.3,1.2 6.6,1.2 z m 49.9,-12.9 h -14.8 v 12.3 h 21.5 v 7.3 h -30.7 v -48.7 h 30.7 v 7.3 h -21.6 v 15 h 17 v 5.3 c 0,-0.1 -0.1,1.5 -2.1,1.5 z"
   id="path8" />
</svg>
