<?xml version="1.0" encoding="utf-8"?>
<!-- Generator: Adobe Illustrator 24.2.1, SVG Export Plug-In . SVG Version: 6.00 Build 0)  -->
<svg version="1.1" id="Layer_1" xmlns="http://www.w3.org/2000/svg" xmlns:xlink="http://www.w3.org/1999/xlink" x="0px" y="0px"
	 viewBox="0 0 400 400" style="enable-background:new 0 0 400 400;" xml:space="preserve">
<style type="text/css">
	.st0{fill:#C6FF00;}
	.st1{fill:#15E302;}
</style>
<g>
	<polygon points="366.5,139.2 249.6,358.4 249.6,153.8 163.8,153.8 235,7.7 322.7,7.7 258.7,139.2 	"/>
	<polygon points="255.3,365 368,168.4 366.5,263.4 	"/>
	<polygon points="234.7,168.4 117.8,387.6 117.8,183.1 32,183.1 103.2,36.9 190.9,36.9 127,168.4 	"/>
	<polygon points="124.6,392.3 236.2,197.7 234.7,292.7 	"/>
	<polygon points="322.7,34.3 280.7,127.7 322.7,127.7 	"/>
	<polygon points="38.2,195.1 105.6,195.1 103.9,260.8 	"/>
	<polygon points="191.2,64.3 191.2,77.4 153.3,153.8 148.5,153.8 	"/>
</g>
</svg>
